<svg width="36" height="36" viewBox="0 0 36 36" fill="none" xmlns="http://www.w3.org/2000/svg">
<path d="M28.125 4.5H22.5C22.5 2.01797 20.482 0 18 0C15.518 0 13.5 2.01797 13.5 4.5H7.875C6.01172 4.5 4.5 6.01172 4.5 7.875V32.625C4.5 34.4883 6.01172 36 7.875 36H28.125C29.9883 36 31.5 34.4883 31.5 32.625V7.875C31.5 6.01172 29.9883 4.5 28.125 4.5ZM18 2.8125C18.9352 2.8125 19.6875 3.56484 19.6875 4.5C19.6875 5.43516 18.9352 6.1875 18 6.1875C17.0648 6.1875 16.3125 5.43516 16.3125 4.5C16.3125 3.56484 17.0648 2.8125 18 2.8125ZM26.5219 19.1109L16.4672 29.0813C16.1367 29.4117 15.6023 29.4047 15.2719 29.0742L9.46406 23.2172C9.13359 22.8867 9.14062 22.3523 9.47109 22.0219L11.468 20.0391C11.7984 19.7086 12.3328 19.7156 12.6633 20.0461L15.8977 23.3086L23.3508 15.9117C23.6812 15.5813 24.2156 15.5883 24.5461 15.9187L26.5289 17.9156C26.8594 18.2531 26.8523 18.7805 26.5219 19.1109Z" fill="#60AFFF"/>
</svg>
