<svg width="117" height="117" viewBox="0 0 117 117" fill="none" xmlns="http://www.w3.org/2000/svg">
<path fill-rule="evenodd" clip-rule="evenodd" d="M105.262 24.0306H11.7685V15.6532C11.7685 13.8359 13.2419 12.3625 15.0591 12.3625H101.972C103.789 12.3625 105.262 13.8359 105.262 15.6532V24.0306Z" fill="#253368"/>
<path fill-rule="evenodd" clip-rule="evenodd" d="M101.972 104.692H15.0591C13.2419 104.692 11.7685 103.219 11.7685 101.401V23.0493H105.262V101.401C105.262 103.219 103.789 104.692 101.972 104.692Z" fill="#E4EBF7"/>
<path fill-rule="evenodd" clip-rule="evenodd" d="M19.3664 17.7927C19.3664 18.9332 18.4418 19.8578 17.3011 19.8578C16.1607 19.8578 15.2361 18.9332 15.2361 17.7927C15.2361 16.6522 16.1607 15.7275 17.3011 15.7275C18.4418 15.7275 19.3664 16.6522 19.3664 17.7927Z" fill="#FF7946"/>
<path fill-rule="evenodd" clip-rule="evenodd" d="M27.0787 17.7927C27.0787 18.9332 26.1542 19.8578 25.0135 19.8578C23.8731 19.8578 22.9485 18.9332 22.9485 17.7927C22.9485 16.6522 23.8731 15.7275 25.0135 15.7275C26.1542 15.7275 27.0787 16.6522 27.0787 17.7927Z" fill="#FAAD14"/>
<path fill-rule="evenodd" clip-rule="evenodd" d="M34.7911 17.7927C34.7911 18.9332 33.8666 19.8578 32.726 19.8578C31.5855 19.8578 30.6609 18.9332 30.6609 17.7927C30.6609 16.6522 31.5855 15.7275 32.726 15.7275C33.8666 15.7275 34.7911 16.6522 34.7911 17.7927Z" fill="#7CB305"/>
<path fill-rule="evenodd" clip-rule="evenodd" d="M21.8735 93.5868C21.3063 93.5868 20.8467 93.1274 20.8467 92.5607V33.0819C20.8467 32.5153 21.3063 32.0559 21.8735 32.0559H96.1788C96.7459 32.0559 97.2057 32.5153 97.2057 33.0819V92.5607C97.2057 93.1274 96.7459 93.5868 96.1788 93.5868H21.8735Z" fill="white"/>
<path fill-rule="evenodd" clip-rule="evenodd" d="M60.6472 87.0874C47.207 87.0874 36.3112 76.1915 36.3112 62.7505C36.3112 49.3095 47.207 38.4136 60.6472 38.4136C74.0882 38.4136 84.985 49.3095 84.985 62.7505C84.985 76.1915 74.0882 87.0874 60.6472 87.0874Z" fill="#E4EBF7"/>
<path fill-rule="evenodd" clip-rule="evenodd" d="M69.4916 84.0923H53.9982V81.5215C53.9982 81.0481 54.3835 80.6646 54.859 80.6646H68.6308C69.1063 80.6646 69.4916 81.0481 69.4916 81.5215V84.0923Z" fill="#FF7946"/>
<path fill-rule="evenodd" clip-rule="evenodd" d="M72.8801 87.1086H50.4726C49.9965 87.1086 49.6107 86.725 49.6107 86.2517V84.5378C49.6107 84.0651 49.9965 83.6809 50.4726 83.6809H72.8801C73.3561 83.6809 73.7419 84.0651 73.7419 84.5378V86.2517C73.7419 86.725 73.3561 87.1086 72.8801 87.1086Z" fill="#FAAD14"/>
<path fill-rule="evenodd" clip-rule="evenodd" d="M57.0315 68.9934L39.5981 79.0767C38.8455 79.5125 37.8828 79.2535 37.448 78.4982L36.0674 76.1035C35.6326 75.3487 35.8901 74.3841 36.6427 73.9484L54.0762 63.8656C54.8288 63.4299 55.7915 63.6888 56.2262 64.4436L57.6068 66.8383C58.0417 67.5936 57.7842 68.5583 57.0315 68.9934Z" fill="#FAAD14"/>
<path fill-rule="evenodd" clip-rule="evenodd" d="M73.6784 69.1431L61.5696 76.1425C60.4587 76.7845 59.0642 76.4481 58.454 75.3906L48.9359 58.8855C48.3257 57.828 48.7318 56.4504 49.8427 55.8084L61.952 48.8089C63.0628 48.1664 64.4574 48.5033 65.067 49.5609L74.5857 66.0659C75.1953 67.1235 74.7892 68.5011 73.6784 69.1431Z" fill="#597EF7"/>
<path fill-rule="evenodd" clip-rule="evenodd" d="M47.3347 39.8425H28.5249C27.7548 39.8425 27.1249 39.2125 27.1249 38.4425C27.1249 37.6724 27.7548 37.0425 28.5249 37.0425H47.3347C48.1047 37.0425 48.7347 37.6724 48.7347 38.4425C48.7347 39.2125 48.1047 39.8425 47.3347 39.8425Z" fill="#E4EBF7"/>
<path fill-rule="evenodd" clip-rule="evenodd" d="M36.4594 46.4456H29.459C28.6858 46.4456 28.0588 45.8187 28.0588 45.0455C28.0588 44.2722 28.6858 43.6455 29.459 43.6455H36.4594C37.2327 43.6455 37.8594 44.2722 37.8594 45.0455C37.8594 45.8187 37.2327 46.4456 36.4594 46.4456Z" fill="#E4EBF7"/>
</svg>
