<svg width="64" height="64" viewBox="0 0 64 64" fill="none" xmlns="http://www.w3.org/2000/svg">
<path d="M49.5279 5.81836H20.4856C19.5772 5.81836 18.8407 6.55244 18.8407 7.45799V52.2061C18.8407 53.1116 19.5772 53.8457 20.4856 53.8457H56.6051C57.5136 53.8457 58.25 53.1116 58.25 52.2061V14.5794L49.5279 5.81836Z" fill="#597EF7"/>
<path d="M49.5279 5.75L49.5416 12.9432C49.5416 13.8487 50.278 14.5828 51.1865 14.5828H58.25" fill="#E4EBF7"/>
<path d="M36.3707 10.203H7.39491C6.48645 10.203 5.75 10.9371 5.75 11.8426V56.5907C5.75 57.4963 6.48645 58.2304 7.39491 58.2304H43.5829C44.4914 58.2304 45.2278 57.4963 45.2278 56.5907V19.7832H38.9066C37.9984 19.7832 36.3707 19.0495 36.3707 18.1436V10.203Z" fill="#E4EBF7"/>
<path d="M17.7121 14.5706H11.1951C10.5722 14.5706 10.0672 15.0756 10.0672 15.6985V22.1873C10.0672 22.8102 10.5722 23.3152 11.1951 23.3152H17.7121C18.3351 23.3152 18.84 22.8102 18.84 22.1873V15.6985C18.84 15.0756 18.3351 14.5706 17.7121 14.5706Z" fill="#597EF7"/>
<path d="M40.3626 27.6875H10.4768C10.2506 27.6875 10.0672 27.8709 10.0672 28.0971V29.4641C10.0672 29.6903 10.2506 29.8737 10.4768 29.8737H40.3626C40.5888 29.8737 40.7722 29.6903 40.7722 29.4641V28.0971C40.7722 27.8709 40.5888 27.6875 40.3626 27.6875Z" fill="#597EF7"/>
<path d="M40.3626 34.2385H10.4768C10.2506 34.2385 10.0672 34.4219 10.0672 34.6481V36.0151C10.0672 36.2413 10.2506 36.4247 10.4768 36.4247H40.3626C40.5888 36.4247 40.7722 36.2413 40.7722 36.0151V34.6481C40.7722 34.4219 40.5888 34.2385 40.3626 34.2385Z" fill="#FF7946"/>
<path d="M40.3626 40.797H10.4768C10.2506 40.797 10.0672 40.9804 10.0672 41.2066V42.5736C10.0672 42.7998 10.2506 42.9832 10.4768 42.9832H40.3626C40.5888 42.9832 40.7722 42.7998 40.7722 42.5736V41.2066C40.7722 40.9804 40.5888 40.797 40.3626 40.797Z" fill="#FAAD14"/>
<path d="M36.3707 10.203V18.1436C36.3707 19.0491 37.1071 19.7832 38.0156 19.7832H45.2278" fill="white"/>
</svg>
