<svg width="33" height="33" viewBox="0 0 33 33" fill="none" xmlns="http://www.w3.org/2000/svg">
<path d="M28.4238 6.76758L22.1139 0.451172C21.8238 0.161133 21.4307 0 21.0182 0H20.625V8.25H28.875V7.85684C28.875 7.45078 28.7139 7.05762 28.4238 6.76758ZM18.5625 8.76562V0H5.67188C4.81465 0 4.125 0.689648 4.125 1.54688V31.4531C4.125 32.3104 4.81465 33 5.67188 33H27.3281C28.1854 33 28.875 32.3104 28.875 31.4531V10.3125H20.1094C19.2586 10.3125 18.5625 9.61641 18.5625 8.76562ZM8.25 4.64062C8.25 4.35574 8.48074 4.125 8.76562 4.125H13.9219C14.2068 4.125 14.4375 4.35574 14.4375 4.64062V5.67188C14.4375 5.95676 14.2068 6.1875 13.9219 6.1875H8.76562C8.48074 6.1875 8.25 5.95676 8.25 5.67188V4.64062ZM8.25 9.79688V8.76562C8.25 8.48074 8.48074 8.25 8.76562 8.25H13.9219C14.2068 8.25 14.4375 8.48074 14.4375 8.76562V9.79688C14.4375 10.0818 14.2068 10.3125 13.9219 10.3125H8.76562C8.48074 10.3125 8.25 10.0818 8.25 9.79688ZM17.5312 26.8048V28.3594C17.5312 28.6443 17.3005 28.875 17.0156 28.875H15.9844C15.6995 28.875 15.4688 28.6443 15.4688 28.3594V26.7938C14.7411 26.7564 14.0334 26.5025 13.4469 26.0623C13.1955 25.8734 13.1826 25.497 13.4101 25.2798L14.1674 24.5573C14.346 24.3871 14.6115 24.3794 14.8204 24.5102C15.0698 24.6662 15.3527 24.75 15.6466 24.75H17.4584C17.8774 24.75 18.219 24.3684 18.219 23.8999C18.219 23.5164 17.9863 23.1786 17.6537 23.0794L14.7533 22.2093C13.5551 21.8496 12.7179 20.6998 12.7179 19.4126C12.7179 17.8322 13.9457 16.5483 15.4681 16.5077V14.9531C15.4681 14.6682 15.6988 14.4375 15.9837 14.4375H17.015C17.2999 14.4375 17.5306 14.6682 17.5306 14.9531V16.5187C18.2583 16.5561 18.966 16.8094 19.5525 17.2502C19.8039 17.4391 19.8168 17.8155 19.5892 18.0327L18.8319 18.7552C18.6534 18.9254 18.3878 18.9331 18.179 18.8023C17.9296 18.6456 17.6466 18.5625 17.3527 18.5625H15.5409C15.122 18.5625 14.7804 18.9441 14.7804 19.4126C14.7804 19.7961 15.0131 20.1339 15.3456 20.2331L18.246 21.1032C19.4442 21.4629 20.2815 22.6127 20.2815 23.8999C20.2815 25.4809 19.0536 26.7642 17.5312 26.8048Z" fill="#60AFFF"/>
</svg>
