<svg width="77" height="77" viewBox="0 0 77 77" fill="none" xmlns="http://www.w3.org/2000/svg">
<path fill-rule="evenodd" clip-rule="evenodd" d="M69.2752 15.8151H7.74512V10.3017C7.74512 9.10577 8.71478 8.13611 9.91074 8.13611H67.1096C68.3057 8.13611 69.2752 9.10577 69.2752 10.3017V15.8151Z" fill="#253368"/>
<path fill-rule="evenodd" clip-rule="evenodd" d="M67.1096 68.8999H9.91074C8.71478 68.8999 7.74512 67.9303 7.74512 66.7342V15.1693H69.2752V66.7342C69.2752 67.9303 68.3057 68.8999 67.1096 68.8999Z" fill="#E4EBF7"/>
<path fill-rule="evenodd" clip-rule="evenodd" d="M12.7454 11.7097C12.7454 12.4603 12.1369 13.0688 11.3862 13.0688C10.6357 13.0688 10.0272 12.4603 10.0272 11.7097C10.0272 10.9591 10.6357 10.3506 11.3862 10.3506C12.1369 10.3506 12.7454 10.9591 12.7454 11.7097Z" fill="#FF7946"/>
<path fill-rule="evenodd" clip-rule="evenodd" d="M17.821 11.7097C17.821 12.4603 17.2126 13.0688 16.4619 13.0688C15.7114 13.0688 15.1029 12.4603 15.1029 11.7097C15.1029 10.9591 15.7114 10.3506 16.4619 10.3506C17.2126 10.3506 17.821 10.9591 17.821 11.7097Z" fill="#FAAD14"/>
<path fill-rule="evenodd" clip-rule="evenodd" d="M22.8967 11.7097C22.8967 12.4603 22.2883 13.0688 21.5376 13.0688C20.787 13.0688 20.1786 12.4603 20.1786 11.7097C20.1786 10.9591 20.787 10.3506 21.5376 10.3506C22.2883 10.3506 22.8967 10.9591 22.8967 11.7097Z" fill="#7CB305"/>
<path fill-rule="evenodd" clip-rule="evenodd" d="M14.3954 61.5912C14.0221 61.5912 13.7196 61.2889 13.7196 60.916V21.7718C13.7196 21.3989 14.0221 21.0966 14.3954 21.0966H63.2972C63.6704 21.0966 63.9729 21.3989 63.9729 21.7718V60.916C63.9729 61.2889 63.6704 61.5912 63.2972 61.5912H14.3954Z" fill="white"/>
<path fill-rule="evenodd" clip-rule="evenodd" d="M31.1519 26.2212H18.7728C18.266 26.2212 17.8514 25.8065 17.8514 25.2998C17.8514 24.793 18.266 24.3784 18.7728 24.3784H31.1519C31.6587 24.3784 32.0733 24.793 32.0733 25.2998C32.0733 25.8065 31.6587 26.2212 31.1519 26.2212Z" fill="#E4EBF7"/>
<path fill-rule="evenodd" clip-rule="evenodd" d="M23.9946 30.5666H19.3875C18.8787 30.5666 18.4661 30.1541 18.4661 29.6453C18.4661 29.1363 18.8787 28.7239 19.3875 28.7239H23.9946C24.5036 28.7239 24.916 29.1363 24.916 29.6453C24.916 30.1541 24.5036 30.5666 23.9946 30.5666Z" fill="#E4EBF7"/>
<path fill-rule="evenodd" clip-rule="evenodd" d="M39.3288 45.9177C37.8798 45.9177 36.7025 44.7389 36.7025 43.2811C36.6975 41.8326 37.8711 40.6544 39.3238 40.6494C39.3255 40.6494 39.3271 40.6493 39.3288 40.6493C40.777 40.6493 41.9542 41.8281 41.9542 43.2852C41.9518 44.7389 40.777 45.9169 39.3288 45.9177ZM45.8633 42.3641C45.8122 42.0769 45.5364 41.783 45.2482 41.7198L45.0333 41.6705C44.5117 41.5128 44.07 41.1625 43.7984 40.6913C43.5241 40.2151 43.4428 39.6524 43.5712 39.1184L43.6387 38.9165C43.7251 38.6366 43.6132 38.2499 43.3884 38.0587C43.3884 38.0587 43.1868 37.8879 42.6203 37.5596C42.0514 37.2329 41.8077 37.1418 41.8077 37.1418C41.5311 37.0399 41.1441 37.1377 40.9416 37.3527L40.7926 37.5128C40.3989 37.8884 39.8745 38.097 39.3296 38.0949C38.7818 38.0963 38.2547 37.8859 37.8592 37.5078L37.716 37.3519C37.5168 37.1368 37.1273 37.0416 36.8499 37.1418C36.8499 37.1418 36.6029 37.2329 36.0348 37.5596C35.4659 37.8904 35.2659 38.0611 35.2659 38.0611C35.0419 38.2507 34.9299 38.6333 35.0164 38.9165L35.0782 39.121C35.2051 39.6541 35.1239 40.2155 34.8509 40.6913C34.5798 41.1664 34.1345 41.5183 33.6086 41.673L33.402 41.7198C33.1188 41.7854 32.8397 42.0753 32.7869 42.3641C32.7869 42.3641 32.74 42.6236 32.74 43.2819C32.74 43.9403 32.7869 44.1988 32.7869 44.1988C32.838 44.4894 33.1138 44.7799 33.402 44.8432L33.6037 44.89C34.1306 45.0451 34.5768 45.3981 34.8476 45.875C35.1308 46.3701 35.1992 46.9331 35.0749 47.4478L35.0164 47.6473C34.9299 47.9272 35.0419 48.3139 35.2667 48.5051C35.2667 48.5051 35.4684 48.6758 36.0348 49.0042C36.6037 49.3326 36.8482 49.422 36.8482 49.422C37.124 49.5238 37.5118 49.4261 37.7144 49.211L37.8559 49.0584C38.6792 48.2728 39.9767 48.2736 40.7992 49.06L40.9408 49.2135C41.1401 49.4277 41.5295 49.5238 41.8069 49.4237C41.8069 49.4237 42.0539 49.3326 42.6228 49.0058C43.1908 48.6775 43.3901 48.5067 43.3901 48.5067C43.6148 48.3179 43.7268 47.9322 43.6404 47.6489L43.5786 47.4421C43.4511 46.9107 43.5324 46.3509 43.8059 45.8775C44.0783 45.4021 44.5237 45.0494 45.0499 44.8924L45.2523 44.8457C45.5356 44.7799 45.8146 44.4903 45.8674 44.2012C45.8674 44.2012 45.9142 43.9419 45.9142 43.2844C45.9094 42.6252 45.8633 42.3641 45.8633 42.3641Z" fill="#597EF7"/>
<path d="M41.3465 27.4078C41.7664 27.1302 42.3319 27.2456 42.6095 27.6656C42.8827 28.0788 42.7753 28.6331 42.3715 28.9152L42.3518 28.9286L41.8926 29.2321L41.9829 29.2491C48.4238 30.5128 53.3009 36.1366 53.411 42.9189L53.4129 43.1533C53.4129 50.9792 47.066 57.3231 39.2369 57.3231C31.4078 57.3231 25.0609 50.9791 25.0609 43.1533C25.0609 37.5053 28.3976 32.4663 33.4689 30.2058C33.9287 30.0009 34.4676 30.2075 34.6726 30.6673C34.8775 31.1271 34.6709 31.666 34.2111 31.8709C29.7913 33.841 26.8839 38.2317 26.8839 43.1533C26.8839 49.9721 32.4145 55.5001 39.2369 55.5001C46.0593 55.5001 51.5898 49.9721 51.5898 43.1533C51.5898 36.3344 46.0593 30.8065 39.2369 30.8065C38.3422 30.8065 37.9875 29.6563 38.712 29.1497L38.7342 29.1346L41.3465 27.4078Z" fill="#FF7946"/>
<path d="M38.5924 29.238C38.9424 28.888 39.5063 28.8822 39.8635 29.2205L39.8815 29.238L42.1374 31.4939C42.4933 31.8499 42.4933 32.427 42.1374 32.783C41.7873 33.133 41.2234 33.1388 40.8663 32.8005L40.8483 32.783L38.5924 30.5271C38.2364 30.1711 38.2364 29.594 38.5924 29.238Z" fill="#FF7946"/>
<path d="M58.2764 54.1453C56.7258 54.1453 55.4688 55.4023 55.4688 56.9529C55.4688 58.5035 56.7258 59.7605 58.2764 59.7605C59.827 59.7605 61.084 58.5035 61.084 56.9529C61.084 55.4023 59.827 54.1453 58.2764 54.1453ZM58.2764 55.0684C59.3172 55.0684 60.1609 55.9121 60.1609 56.9529C60.1609 57.9937 59.3172 58.8374 58.2764 58.8374C57.2356 58.8374 56.3918 57.9937 56.3918 56.9529C56.3918 55.9121 57.2356 55.0684 58.2764 55.0684Z" fill="#E4EBF7"/>
<path d="M60.1858 55.5297C60.4236 55.438 60.6908 55.5565 60.7825 55.7943C60.9213 56.1545 60.9938 56.5452 60.9938 56.9469C60.9938 57.2757 60.9452 57.5976 60.8511 57.9015C60.7758 58.145 60.5173 58.2813 60.2738 58.2059C60.0302 58.1306 59.894 57.872 59.9693 57.6285C60.036 57.4131 60.0707 57.1832 60.0707 56.9469C60.0707 56.6747 60.0247 56.4114 59.937 56.1689L59.9212 56.1263C59.8295 55.8885 59.9479 55.6214 60.1858 55.5297Z" fill="#597EF7"/>
</svg>
