<svg width="64" height="64" viewBox="0 0 64 64" fill="none" xmlns="http://www.w3.org/2000/svg">
<path d="M50.2422 21.5448C50.2422 11.488 42.0875 3.25 32.0278 3.25C21.968 3.25 13.8125 11.488 13.8125 21.5448C13.8125 25.525 15.926 30.6663 19.3197 34.4568C22.685 38.2127 23.6435 44.536 23.6435 49.5783V51.5552H40.412V49.5947C40.412 44.5525 41.3705 38.2412 44.7185 34.4732C48.1235 30.6437 50.2422 25.0457 50.2422 21.5448Z" fill="#FFE58F"/>
<path d="M47.2445 21.4953C47.2445 13.0953 40.4338 6.21252 32.0278 6.21252C23.6217 6.21252 16.8125 13.0945 16.8125 21.4953C16.8125 24.823 18.5773 29.116 21.413 32.2825C24.224 35.4205 26.3112 40.7028 26.3112 44.9147V46.5648H37.745V44.929C37.745 40.7163 39.8322 35.4438 42.6297 32.296C45.4745 29.0973 47.2445 24.421 47.2445 21.496V21.4953Z" fill="#FAAD14"/>
<path d="M36.6508 60.7802H27.4048C27.0815 60.7802 26.7868 60.5702 26.6113 60.2252L25.3535 56.9709H38.7035L37.4458 60.2252C37.2695 60.5702 36.9755 60.7802 36.6523 60.7802H36.6508Z" fill="#253368"/>
<path d="M38.8963 44.0343H25.1593C24.1387 44.0343 23.3113 44.8617 23.3113 45.8823V56.5241C23.3113 57.5447 24.1387 58.3721 25.1593 58.3721H38.8963C39.9169 58.3721 40.7443 57.5447 40.7443 56.5241V45.8823C40.7443 44.8617 39.9169 44.0343 38.8963 44.0343Z" fill="#597EF7"/>
<path d="M33.155 47.8761C33.325 47.8761 33.4629 48.0139 33.4629 48.184C33.4629 48.3495 33.3322 48.4846 33.1684 48.4916L33.155 48.4918H23.3338C23.1637 48.4918 23.0259 48.354 23.0259 48.184C23.0259 48.0184 23.1566 47.8834 23.3204 47.8764L23.3338 47.8761H33.155Z" fill="white"/>
<path d="M33.155 54.2504C33.325 54.2504 33.4629 54.3882 33.4629 54.5582C33.4629 54.7238 33.3322 54.8588 33.1684 54.8658L33.155 54.8661H23.3338C23.1637 54.8661 23.0259 54.7283 23.0259 54.5582C23.0259 54.3927 23.1566 54.2576 23.3204 54.2507L23.3338 54.2504H33.155Z" fill="white"/>
<path d="M40.6881 51.0629C40.8581 51.0629 40.9959 51.2007 40.9959 51.3707C40.9959 51.5363 40.8652 51.6713 40.7014 51.6783L40.6881 51.6786H30.8668C30.6967 51.6786 30.5589 51.5408 30.5589 51.3707C30.5589 51.2052 30.6896 51.0701 30.8534 51.0632L30.8668 51.0629H40.6881Z" fill="white"/>
<path d="M33.2701 14.192L26.4039 24.6508C26.0345 25.2178 26.4319 25.915 27.0975 25.915H30.1732L26.3915 33.0583C26.1096 33.6359 26.8367 34.1718 27.2825 33.715L37.5672 23.3828C38.0918 22.845 37.7193 21.9266 36.9767 21.9266H32.3258L34.2716 14.6481C34.4237 14.0269 33.616 13.6623 33.2701 14.192Z" fill="white"/>
</svg>
