<svg width="34" height="24" viewBox="0 0 34 24" fill="none" xmlns="http://www.w3.org/2000/svg">
<path d="M32.5833 0.666748H5.19444C4.41203 0.666748 3.77778 1.301 3.77778 2.08341V2.55564H1.41667C0.634253 2.55564 0 3.18989 0 3.9723V20.0279C0 21.8535 1.47994 23.3334 3.30556 23.3334H31.1667C32.7315 23.3334 34 22.0649 34 20.5001V2.08341C34 1.301 33.3657 0.666748 32.5833 0.666748ZM3.30556 20.5001C3.18031 20.5001 3.0602 20.4503 2.97164 20.3618C2.88309 20.2732 2.83333 20.1531 2.83333 20.0279V5.38897H3.77778V20.0279C3.77778 20.1531 3.72803 20.2732 3.63947 20.3618C3.55091 20.4503 3.4308 20.5001 3.30556 20.5001ZM17.2361 19.5556H8.26389C7.87271 19.5556 7.55556 19.2385 7.55556 18.8473V18.3751C7.55556 17.9839 7.87271 17.6667 8.26389 17.6667H17.2361C17.6273 17.6667 17.9444 17.9839 17.9444 18.3751V18.8473C17.9444 19.2385 17.6273 19.5556 17.2361 19.5556ZM29.5139 19.5556H20.5417C20.1505 19.5556 19.8333 19.2385 19.8333 18.8473V18.3751C19.8333 17.9839 20.1505 17.6667 20.5417 17.6667H29.5139C29.9051 17.6667 30.2222 17.9839 30.2222 18.3751V18.8473C30.2222 19.2385 29.9051 19.5556 29.5139 19.5556ZM17.2361 13.889H8.26389C7.87271 13.889 7.55556 13.5718 7.55556 13.1806V12.7084C7.55556 12.3172 7.87271 12.0001 8.26389 12.0001H17.2361C17.6273 12.0001 17.9444 12.3172 17.9444 12.7084V13.1806C17.9444 13.5718 17.6273 13.889 17.2361 13.889ZM29.5139 13.889H20.5417C20.1505 13.889 19.8333 13.5718 19.8333 13.1806V12.7084C19.8333 12.3172 20.1505 12.0001 20.5417 12.0001H29.5139C29.9051 12.0001 30.2222 12.3172 30.2222 12.7084V13.1806C30.2222 13.5718 29.9051 13.889 29.5139 13.889ZM29.5139 8.2223H8.26389C7.87271 8.2223 7.55556 7.90515 7.55556 7.51397V5.15286C7.55556 4.76168 7.87271 4.44453 8.26389 4.44453H29.5139C29.9051 4.44453 30.2222 4.76168 30.2222 5.15286V7.51397C30.2222 7.90515 29.9051 8.2223 29.5139 8.2223Z" fill="#60AFFF"/>
</svg>
