<svg width="70" height="139" viewBox="0 0 70 139" fill="none" xmlns="http://www.w3.org/2000/svg">
<path fill-rule="evenodd" clip-rule="evenodd" d="M24.4113 50.0559C24.4113 50.0559 24.8132 45.8456 25.7184 42.0506C26.5437 38.59 27.7901 35.6765 30.0183 36.1011C32.816 36.6343 31.4295 41.4235 30.917 43.8942C30.548 45.6721 29.4308 49.3105 28.7007 51.1672C27.5358 54.1288 23.7392 52.7281 24.4113 50.0559Z" fill="#FFC999"/>
<path fill-rule="evenodd" clip-rule="evenodd" d="M30.7102 44.8907C31.2227 42.42 33.4919 36.762 30.026 36.0636C27.5805 35.5711 26.3418 38.6662 25.4547 43.322L30.7102 44.8907Z" fill="#E4EBF7"/>
<path fill-rule="evenodd" clip-rule="evenodd" d="M35.8845 83.2619C37.2041 74.6195 36.4576 67.3243 36.4576 67.3243C36.4576 67.3243 34.0658 60.3715 30.3863 64.8225C28.6046 66.9779 28.6515 72.8031 29.4546 82.5163C29.4546 82.5163 29.4161 87.0542 32.773 87.0636C35.5828 87.0713 35.8845 83.2619 35.8845 83.2619Z" fill="#FFC999"/>
<path fill-rule="evenodd" clip-rule="evenodd" d="M36.6575 77.3532C32.9899 78.4576 28.9564 77.0154 28.9564 77.0154C28.8859 74.3717 28.6564 71.1366 29.326 61.873C34.0479 58.8901 37.209 65.0435 37.209 65.0435L36.6575 77.3532Z" fill="#597EF7"/>
<path d="M29.3486 75.3974C29.3616 75.3573 29.4049 75.3352 29.4453 75.348L29.5258 75.3721C29.5794 75.3876 29.6408 75.4046 29.7095 75.4227L29.7625 75.4365C30.0217 75.5033 30.3204 75.5701 30.6545 75.6326C32.4848 75.9745 34.5097 76.0443 36.5689 75.6712C36.6107 75.6636 36.6508 75.6911 36.6584 75.7326C36.666 75.7741 36.6383 75.8139 36.5965 75.8214C34.5169 76.1982 32.4736 76.1278 30.6261 75.7827C30.3222 75.7259 30.0471 75.6654 29.8038 75.6046L29.7238 75.5843C29.6502 75.5653 29.584 75.5474 29.5253 75.5309L29.4069 75.4961C29.4037 75.4951 29.4008 75.4942 29.3984 75.4935C29.3579 75.4806 29.3356 75.4376 29.3486 75.3974Z" fill="#253368"/>
<path d="M37.2124 64.9672C37.2506 64.9688 37.281 64.9979 37.2854 65.0344L37.2858 65.0468L36.7344 77.3564C36.7329 77.3882 36.7118 77.4158 36.6813 77.4257L36.6159 77.4455L36.5479 77.465C36.5237 77.4717 36.4981 77.4787 36.4711 77.4859L36.4295 77.4969C36.2266 77.5498 35.9927 77.6026 35.7309 77.6519C33.5896 78.0552 31.2245 77.9781 28.9284 77.0864C28.8889 77.071 28.8693 77.0267 28.8848 76.9874C28.9003 76.9482 28.9449 76.9288 28.9845 76.9442C31.2501 77.8241 33.587 77.9003 35.7022 77.5019C35.9318 77.4587 36.1393 77.4127 36.3228 77.3665L36.3904 77.3492C36.4322 77.3383 36.4708 77.3278 36.5061 77.318L36.583 77.2959L37.1322 65.04C37.1339 65.0021 37.1631 64.9719 37.1999 64.9676L37.2124 64.9672Z" fill="#253368"/>
<path fill-rule="evenodd" clip-rule="evenodd" d="M35.7831 91.0715C34.9611 97.7488 33.7487 102.271 33.8508 108.978C33.8633 109.792 32.6837 109.882 31.5718 109.835C29.1318 111.91 24.5007 112.638 23.8477 111.752C23.4556 111.22 25.0634 109.152 26.6132 108.731C30.0776 107.79 29.9033 103.792 29.9033 103.792C29.9033 103.792 29.7167 91.0864 29.5737 83.2719C29.5737 83.2719 29.6824 78.5756 32.6813 78.723C37.8728 78.9779 36.0636 88.7925 35.7831 91.0715Z" fill="#FFC999"/>
<path fill-rule="evenodd" clip-rule="evenodd" d="M21.8811 111.721C21.8811 111.721 22.3607 112.782 25.0276 112.747C27.6944 112.711 28.9733 111.599 30.3766 111.447C32.9994 111.163 34.1462 110.548 34.1462 110.548C34.1462 110.548 34.2651 110.945 34.0227 111.465C33.649 112.269 31.2137 111.904 29.7421 112.516C28.6777 112.959 27.8498 113.201 26.0905 113.536C24.3309 113.871 22.1526 113.283 21.921 112.69C21.6895 112.096 21.8811 111.721 21.8811 111.721Z" fill="#A3B5D6"/>
<path fill-rule="evenodd" clip-rule="evenodd" d="M34.0628 110.639C34.0628 110.639 33.4648 110.953 31.4813 111.342C31.0069 111.435 30.5404 111.543 29.712 111.79C28.4391 112.171 24.4093 113.789 22.1192 112.093C21.7763 111.681 21.8947 111.222 22.092 110.872C22.2796 110.538 22.594 110.294 22.9627 110.185C24.08 109.855 26.7499 109.071 28.1856 107.13C28.3536 106.903 28.6426 106.802 28.9163 106.878C29.2475 106.969 29.6743 107.149 29.9698 107.504C30.2157 107.799 29.4461 108.849 29.728 108.911C30.5034 109.082 31.8262 108.919 32.6916 108.402C33.4168 107.97 33.8784 107.546 33.8784 107.546C33.8784 107.546 34.4559 109.533 34.0628 110.639Z" fill="#4E5C93"/>
<path d="M22.7982 110.849C22.8253 110.808 22.88 110.798 22.9204 110.825L22.9374 110.835C22.9516 110.844 22.9715 110.855 22.9973 110.868L23.0177 110.878C23.1032 110.921 23.2067 110.963 23.3282 111.003C23.9966 111.224 24.8731 111.27 25.9625 111.03C26.01 111.02 26.057 111.05 26.0676 111.097C26.0781 111.144 26.0481 111.191 26.0006 111.201C24.88 111.448 23.9712 111.4 23.2726 111.169C23.143 111.127 23.0318 111.081 22.9388 111.035L22.8945 111.012C22.8612 110.994 22.8372 110.98 22.8223 110.97C22.7819 110.943 22.7711 110.889 22.7982 110.849Z" fill="#A3B5D6"/>
<path d="M27.4077 108.043C27.4221 107.997 27.4715 107.971 27.5179 107.985L27.561 108L27.5765 108.005C27.6212 108.022 27.6709 108.042 27.7243 108.066C27.8766 108.135 28.0289 108.221 28.1715 108.327C28.3481 108.458 28.4973 108.609 28.6099 108.782C28.6363 108.822 28.6245 108.877 28.5837 108.903C28.5428 108.929 28.4883 108.917 28.4619 108.877C28.3616 108.722 28.227 108.586 28.0663 108.467C27.9345 108.37 27.7929 108.289 27.6513 108.225C27.6142 108.209 27.5791 108.194 27.5466 108.181L27.515 108.169C27.4909 108.16 27.474 108.155 27.4658 108.152C27.4193 108.138 27.3933 108.089 27.4077 108.043Z" fill="#A3B5D6"/>
<path fill-rule="evenodd" clip-rule="evenodd" d="M33.2851 35.0328C33.2851 35.0328 33.7834 37.7655 36.8083 37.915C40.3195 38.0886 40.9562 35.3181 40.9562 35.3181L40.1281 35.0088C39.9565 34.9447 39.8414 34.7852 39.8365 34.6034C39.8199 33.9543 39.7885 32.2997 39.8271 30.1215C36.8608 28.9885 34.7379 29.7845 34.7379 29.7845C34.7379 29.7845 34.6618 32.3689 34.5716 34.2723C34.5629 34.4568 34.4415 34.617 34.2648 34.6755C33.96 34.7761 33.4976 34.9339 33.2851 35.0328Z" fill="#FFC999"/>
<path fill-rule="evenodd" clip-rule="evenodd" d="M40.8073 28.2045C40.8073 28.2045 41.3903 24.0431 38.2268 23.6255C34.4058 23.1213 34.0147 25.2568 33.6798 26.2405C33.3242 27.2856 32.6292 31.7525 34.852 32.9092C35.8025 33.3309 36.3928 33.572 38.1587 32.7555C40.7283 31.5676 40.8073 28.2045 40.8073 28.2045Z" fill="#FFC999"/>
<path fill-rule="evenodd" clip-rule="evenodd" d="M39.6049 31.2233L39.8538 28.8852C39.8538 28.8852 41.7812 27.9248 41.8899 29.1353C42.0006 30.3696 41.0861 31.1411 40.2884 31.3646C39.7755 31.5082 39.6049 31.2233 39.6049 31.2233Z" fill="#FFC999"/>
<path fill-rule="evenodd" clip-rule="evenodd" d="M39.8956 23.0505C39.8956 23.0505 38.0286 21.558 37.0939 21.6553C36.1589 21.7526 36.8303 22.516 36.8303 22.516C36.8303 22.516 34.313 21.8917 34.0364 22.4445C33.7593 22.9973 34.6584 23.3382 34.6584 23.3382C34.6584 23.3382 32.107 23.8421 31.931 24.5757C31.7555 25.3094 32.9396 25.2322 32.9396 25.2322C32.9396 25.2322 31.9702 26.2277 32.2064 26.8794C32.4429 27.5312 33.0245 27.5013 33.0245 27.5013L33.361 28.3717L33.6379 26.6113C33.6379 26.6113 34.5638 26.2926 36.2789 25.6254C35.1975 26.5736 35.8173 26.6231 36.6696 26.5196C37.6681 26.3985 38.844 26.1478 38.788 26.1151C38.788 26.1151 38.7244 27.2697 39.4568 27.8562C40.3546 28.5749 39.5722 29.8499 39.8169 29.9271C40.2871 30.08 40.3259 28.7793 41.2654 28.6248C41.9893 28.6256 42.1759 27.7588 41.9987 27.4473C42.9591 27.3905 43.0003 26.416 41.8408 25.479C42.9171 25.4218 42.3348 24.3972 40.7847 23.8698C41.4163 22.1664 39.8956 23.0505 39.8956 23.0505Z" fill="#253368"/>
<path d="M36.9184 27.4118C37.3619 27.384 37.8348 27.4342 38.3014 27.5347C38.4115 27.5585 38.5144 27.5836 38.6085 27.6091L38.6917 27.6323L38.7876 27.6612C38.7937 27.6631 38.7985 27.6647 38.8019 27.6658C38.8556 27.6836 38.8845 27.7413 38.8665 27.7947C38.8486 27.848 38.7904 27.8767 38.7367 27.8588L38.7025 27.848C38.6834 27.8421 38.6593 27.8349 38.6304 27.8266L38.6079 27.8202C38.5033 27.7908 38.3857 27.7613 38.2579 27.7337C37.8083 27.6368 37.3534 27.5885 36.9313 27.615C36.884 27.6179 36.8373 27.6219 36.7914 27.6267C36.7351 27.6327 36.6845 27.5923 36.6785 27.5363C36.6725 27.4804 36.7132 27.4303 36.7696 27.4243C36.8185 27.4191 36.8681 27.4149 36.9184 27.4118Z" fill="#253368"/>
<path d="M33.9446 27.2413C34.4199 27.0872 34.8793 27.1147 35.2895 27.2536C35.4179 27.2971 35.5115 27.3411 35.5642 27.3718C35.6131 27.4003 35.6294 27.4627 35.6007 27.5112C35.5721 27.5597 35.5092 27.5759 35.4604 27.5474L35.4442 27.5386C35.4336 27.533 35.4192 27.5258 35.4012 27.5174C35.3499 27.4933 35.2903 27.469 35.2233 27.4463C34.8522 27.3207 34.4371 27.2958 34.0083 27.4348C33.9545 27.4523 33.8966 27.4231 33.879 27.3697C33.8614 27.3162 33.8908 27.2587 33.9446 27.2413Z" fill="#253368"/>
<path d="M35.5589 27.5465C35.5958 27.5384 35.6324 27.5584 35.646 27.5922L35.6496 27.6039L35.7626 28.1113L35.7636 28.1386L35.5109 29.8448L36.1303 30.0358C36.1664 30.047 36.1882 30.0824 36.1831 30.1184L36.1804 30.1304C36.1692 30.1662 36.1335 30.1879 36.0972 30.1828L36.0851 30.1801L35.4037 29.97C35.3719 29.9602 35.3507 29.9312 35.3502 29.899L35.351 29.8869L35.611 28.1304L35.501 27.6365C35.4929 27.5999 35.513 27.5636 35.5471 27.5501L35.5589 27.5465Z" fill="#DD936F"/>
<path d="M37.135 28.714C37.5182 28.4954 37.8703 28.5205 38.1627 28.6956C38.2483 28.7469 38.309 28.7989 38.3432 28.8362C38.3814 28.8777 38.3783 28.9421 38.3365 28.98C38.2946 29.0178 38.2298 29.0149 38.1916 28.9733L38.177 28.959C38.1722 28.9546 38.1665 28.9495 38.1598 28.9437C38.1306 28.9187 38.0961 28.8935 38.0568 28.87C37.8245 28.7309 37.5512 28.7114 37.2371 28.8906C37.188 28.9186 37.1254 28.9018 37.0971 28.853C37.0689 28.8043 37.0859 28.7421 37.135 28.714Z" fill="#253368"/>
<path d="M34.3141 28.2953C34.5261 28.2255 34.7463 28.2689 34.9571 28.3806C35.0394 28.4242 35.1018 28.468 35.1387 28.4989C35.1819 28.5351 35.1874 28.5994 35.1509 28.6423C35.1144 28.6853 35.0497 28.6907 35.0064 28.6545L34.9887 28.6407C34.9832 28.6366 34.9766 28.6319 34.9691 28.6266C34.937 28.604 34.9004 28.5814 34.8605 28.5602C34.6946 28.4723 34.5279 28.4395 34.3787 28.4886C34.3227 28.507 34.2692 28.537 34.2182 28.5801C34.175 28.6165 34.1103 28.6113 34.0736 28.5685C34.0369 28.5257 34.0422 28.4614 34.0853 28.425C34.1563 28.365 34.233 28.322 34.3141 28.2953Z" fill="#253368"/>
<path fill-rule="evenodd" clip-rule="evenodd" d="M37.1557 30.58C37.1557 30.58 36.0502 30.7401 35.0266 30.5043C35.0266 30.5043 35.2555 31.1491 35.9862 31.2015C36.9084 31.2676 37.1557 30.58 37.1557 30.58Z" fill="white"/>
<path d="M34.9448 30.5329L34.955 30.5591C34.9655 30.5841 34.981 30.6166 35.0018 30.6549C35.05 30.7429 35.1115 30.8308 35.188 30.913C35.3864 31.1262 35.6487 31.2637 35.98 31.2874C36.4246 31.3193 36.762 31.1899 37.0016 30.9542C37.1311 30.8267 37.2053 30.6984 37.2375 30.609C37.2595 30.5479 37.208 30.4855 37.1432 30.4948L37.0804 30.5028L37.0143 30.5101C36.9794 30.5138 36.9418 30.5173 36.9017 30.5208C36.3694 30.5663 35.7937 30.5591 35.2549 30.4629C35.1839 30.4502 35.1143 30.4361 35.0462 30.4204C34.9796 30.405 34.9221 30.4688 34.9448 30.5329ZM35.1999 30.6487L35.1851 30.6251L35.2242 30.6325C35.7804 30.7318 36.3704 30.7392 36.9166 30.6924L37.0013 30.6845L36.9898 30.7018C36.9586 30.7462 36.9219 30.79 36.8794 30.8318C36.6748 31.0332 36.3862 31.1438 35.9925 31.1156C35.7077 31.0952 35.4853 30.9787 35.3155 30.7961C35.2714 30.7488 35.233 30.6991 35.1999 30.6487Z" fill="#FF7A46"/>
<path d="M34.4706 32.6861C34.5022 32.6585 34.5502 32.6615 34.578 32.6928L34.5938 32.7096C34.6131 32.7292 34.6428 32.7571 34.6827 32.7909C34.7728 32.8672 34.8811 32.9437 35.0075 33.0152C35.6562 33.3821 36.4877 33.4775 37.506 33.1313C37.5458 33.1178 37.5891 33.1388 37.6027 33.1783C37.6163 33.2177 37.5951 33.2607 37.5553 33.2742C36.4946 33.6349 35.6179 33.5343 34.9322 33.1464C34.7972 33.0701 34.6811 32.9881 34.584 32.9059L34.5433 32.8705C34.5062 32.8372 34.4797 32.8105 34.4639 32.7927C34.4361 32.7615 34.4391 32.7137 34.4706 32.6861Z" fill="#DD936F"/>
<path d="M35.7892 31.6404L36.3097 31.6666C36.3516 31.6688 36.3839 31.7043 36.3818 31.7459C36.3799 31.7834 36.3507 31.8131 36.3143 31.8172L36.3019 31.8175L35.7815 31.7913C35.7395 31.7892 35.7072 31.7537 35.7093 31.712C35.7112 31.6745 35.7404 31.6448 35.7768 31.6407L35.7892 31.6404Z" fill="#DD936F"/>
<path d="M40.6996 29.4316C40.9446 29.0957 41.1933 29.0302 41.3991 29.1378C41.432 29.155 41.4559 29.1728 41.4703 29.1865C41.5007 29.2153 41.5018 29.2632 41.4727 29.2933C41.4437 29.3235 41.3955 29.3245 41.3651 29.2957C41.3603 29.2911 41.3475 29.2816 41.3282 29.2714C41.1912 29.1998 41.0245 29.2437 40.8229 29.5202L40.7702 29.5936C40.7391 29.6377 40.7158 29.6723 40.6994 29.6991L40.6831 29.7268L40.6954 29.73C40.7194 29.7365 40.7319 29.7407 40.746 29.7476L40.7676 29.7593C40.8319 29.7957 40.8799 29.8567 40.9092 29.9478C41.0265 30.3115 40.6568 30.5498 40.2418 30.5165C40.2 30.5131 40.1687 30.4767 40.1721 30.4351C40.1755 30.3935 40.2122 30.3625 40.2541 30.3659C40.5783 30.3919 40.8385 30.2241 40.7643 29.9938C40.7463 29.9378 40.7225 29.9077 40.6922 29.8905L40.6822 29.8851C40.6759 29.8821 40.6697 29.8798 40.6582 29.8766L40.6207 29.8668C40.4493 29.8234 40.4774 29.7364 40.6996 29.4316Z" fill="#DD936F"/>
<path d="M39.6396 31.156C39.677 31.1751 39.6918 31.2206 39.6726 31.2577L39.6477 31.3046L39.6158 31.3629C39.6045 31.3833 39.5925 31.4046 39.58 31.4267C39.5081 31.5529 39.4308 31.6792 39.3511 31.7973C39.2604 31.9315 39.1722 32.0467 39.0879 32.1375C39.0148 32.2161 38.9455 32.2756 38.8793 32.3136C38.8429 32.3345 38.7964 32.3222 38.7753 32.2861C38.7543 32.25 38.7667 32.2038 38.803 32.1829C38.854 32.1536 38.9124 32.1035 38.976 32.035C39.0543 31.9507 39.1381 31.8414 39.2247 31.7132C39.3021 31.5985 39.3774 31.4755 39.4475 31.3523L39.4985 31.261L39.5372 31.1888C39.5564 31.1517 39.6022 31.137 39.6396 31.156Z" fill="#DD936F"/>
<path fill-rule="evenodd" clip-rule="evenodd" d="M30.7116 53.5323C29.8384 54.7371 30.7598 55.8539 30.7598 55.8539C34.1372 56.1547 42.5942 56.086 42.5942 56.086C43.9879 55.6391 43.2205 52.8451 43.2205 52.8451C43.2205 52.8451 44.0304 46.5924 44.6512 41.6743C44.9184 39.5565 45.421 36.5911 45.2762 36.5268C43.6487 35.8037 42.5001 35.3745 39.9805 34.9005C39.9067 35.055 39.5765 36.2411 37.2091 36.2189C34.6177 36.1949 33.7761 34.8754 33.6869 34.671C32.4238 34.9862 31.036 35.3124 29.5582 35.8186C29.1089 35.9725 28.8396 36.4302 28.9227 36.8951L29.0558 38.7789C29.0558 38.7789 28.8548 43.2857 30.7116 53.5323Z" fill="#E4EBF7"/>
<path d="M40.3002 36.1607C40.3358 36.1377 40.3834 36.1477 40.4066 36.183C40.4298 36.2183 40.4197 36.2656 40.3841 36.2887C38.4624 37.5316 36.451 37.6011 34.6045 36.9739C34.3621 36.8916 34.1449 36.8034 33.9559 36.715L33.8803 36.6789C33.8683 36.6731 33.8567 36.6673 33.8455 36.6617L33.7819 36.6292C33.7518 36.6134 33.7311 36.6021 33.7202 36.5957C33.6834 36.5746 33.6709 36.5279 33.6922 36.4914C33.7135 36.4549 33.7606 36.4425 33.7973 36.4636L33.8378 36.4858L33.8537 36.4941C33.9012 36.519 33.9573 36.5468 34.0215 36.5769C34.2055 36.6629 34.4175 36.749 34.6543 36.8294C36.4597 37.4427 38.423 37.3749 40.3002 36.1607Z" fill="#A3B5D6"/>
<path d="M29.5244 40.0795L29.5369 40.0797C29.5792 40.0838 29.6101 40.1212 29.6059 40.1632L29.5996 40.2356L29.5896 40.3714C29.5843 40.4502 29.579 40.5388 29.574 40.6372L29.5654 40.8176C29.4341 43.7909 29.7293 48.0702 30.7872 53.518C30.7902 53.5334 30.7883 53.5493 30.7819 53.5636C30.2826 54.6733 30.3757 55.3016 30.8159 55.5936C30.896 55.6467 30.9821 55.6838 31.0682 55.7074L31.1041 55.7166C31.1373 55.7244 31.1619 55.7282 31.1728 55.7293L32.1992 55.7355C32.5192 55.7377 32.86 55.7404 33.2179 55.7435L34.1374 55.752C35.1572 55.7622 36.1679 55.7747 37.1392 55.7898L38.7648 55.8184C40.3738 55.8504 41.6925 55.8891 42.6399 55.9352C42.6823 55.9373 42.715 55.9731 42.7129 56.0152C42.7109 56.0573 42.6748 56.0898 42.6324 56.0877L42.215 56.0689C41.094 56.0219 39.5606 55.9831 37.7144 55.9519L37.1368 55.9425C36.0686 55.9259 34.9528 55.9124 33.8297 55.9017L32.4419 55.8899L31.1663 55.8817L31.1365 55.8782C31.108 55.8741 31.0709 55.8666 31.0272 55.8546C30.9261 55.8269 30.8251 55.7834 30.7305 55.7206C30.2277 55.387 30.1179 54.695 30.6168 53.5567L30.6315 53.5235L30.6039 53.3802L30.5422 53.0554C29.5481 47.7741 29.2782 43.6189 29.416 40.7196L29.4204 40.6295C29.4244 40.55 29.4286 40.4769 29.4329 40.41L29.4479 40.2033C29.45 40.1784 29.4517 40.16 29.4528 40.1482C29.4566 40.1104 29.4875 40.0818 29.5244 40.0795Z" fill="#A3B5D6"/>
<path fill-rule="evenodd" clip-rule="evenodd" d="M45.3618 64.2474L38.0623 68.2429C38.0623 68.2429 36.207 68.7228 34.8409 68.1676C32.8564 67.3609 30.6331 66.051 29.1117 64.5795C29.0959 59.7632 30.7346 57.0503 30.7346 57.0503L43.302 57.2967C43.302 57.2967 44.6677 58.276 45.3618 64.2474Z" fill="#597EF7"/>
<path fill-rule="evenodd" clip-rule="evenodd" d="M30.6153 57.1609L30.7833 55.6753L43.2366 55.8793L43.3792 57.2993C43.3792 57.2993 31.8847 57.205 30.6153 57.1609Z" fill="#597EF7"/>
<path d="M36.0294 55.7376C36.0718 55.7396 36.1047 55.7752 36.1028 55.8174L36.0846 56.2737L36.0659 56.8001C36.0598 56.9846 36.0537 57.1777 36.0478 57.3788L36.0443 57.5004C35.9975 59.1426 35.9752 60.8152 35.9904 62.3912L35.9939 62.7051C36.0219 64.8676 36.1215 66.6226 36.3073 67.8233C36.3137 67.865 36.2849 67.904 36.243 67.9104C36.201 67.9168 36.1617 67.8882 36.1553 67.8465L36.1345 67.7072C35.9641 66.5272 35.8708 64.8611 35.8418 62.8294L35.8401 62.7071C35.8199 61.1423 35.838 59.4727 35.8815 57.8252L35.9012 57.1367C35.9085 56.9029 35.9159 56.6809 35.9234 56.4722L35.9492 55.8106C35.951 55.7685 35.987 55.7358 36.0294 55.7376Z" fill="#253368"/>
<path d="M37.5953 57.3277C37.6335 57.3265 37.6661 57.3532 37.6732 57.3893L37.6747 57.4043L37.694 58.0548C37.7031 58.3714 37.7122 58.7012 37.7211 59.0384L37.7459 60.0316C37.7518 60.2822 37.7573 60.5284 37.7624 60.7689L37.7778 61.5583C37.8014 62.8802 37.8063 63.8693 37.7874 64.4077C37.7688 64.9357 37.4679 65.294 36.9857 65.5089C36.8139 65.5855 36.6307 65.6383 36.4476 65.6719C36.3836 65.6836 36.324 65.6921 36.2704 65.6979L36.2102 65.7034C36.2068 65.7037 36.2037 65.7038 36.2011 65.704C36.1586 65.7062 36.1225 65.6738 36.1202 65.6317C36.118 65.5896 36.1506 65.5537 36.193 65.5515L36.2226 65.5492C36.2315 65.5484 36.2419 65.5474 36.2537 65.5461C36.3037 65.5407 36.3595 65.5327 36.4197 65.5217C36.5915 65.4902 36.7632 65.4407 36.9227 65.3696C37.3559 65.1765 37.6173 64.8651 37.6336 64.4024L37.6389 64.2164C37.6509 63.6669 37.6453 62.7829 37.6255 61.6443L37.6159 61.1283C37.6113 60.8938 37.6062 60.6531 37.6007 60.4074L37.583 59.6562C37.5762 59.3809 37.5691 59.1082 37.562 58.8411L37.5208 57.4064C37.5195 57.3642 37.5529 57.329 37.5953 57.3277Z" fill="#253368"/>
<path d="M30.6165 57.0846L35.0954 57.1528L41.9618 57.2492C42.4553 57.2554 42.9009 57.2608 43.2945 57.2652C43.337 57.2657 43.371 57.3002 43.3705 57.3424C43.37 57.3846 43.3352 57.4184 43.2928 57.4179L39.1921 57.3648L36.5856 57.3275L30.6141 57.2373C30.5716 57.2366 30.5377 57.2019 30.5383 57.1597C30.5391 57.1176 30.574 57.0839 30.6165 57.0846Z" fill="#253368"/>
<path d="M30.7705 55.6322L34.355 55.6882L39.7608 55.7679C41.1566 55.7874 42.3339 55.8026 43.2434 55.8128C43.2859 55.8133 43.3199 55.8478 43.3195 55.89C43.319 55.9322 43.2841 55.966 43.2417 55.9655L41.1831 55.94L37.0983 55.8823L34.3526 55.8409L30.768 55.7849C30.7256 55.7842 30.6917 55.7495 30.6923 55.7073C30.6931 55.6652 30.7281 55.6315 30.7705 55.6322Z" fill="#253368"/>
<path d="M41.6238 57.5833C41.666 57.5783 41.7043 57.6082 41.7094 57.65L41.7194 57.7217C41.7224 57.741 41.7259 57.7631 41.73 57.788C41.7484 57.8989 41.7724 58.0226 41.8025 58.156C41.8886 58.5368 42.0068 58.9175 42.1618 59.2721C42.5029 60.0527 42.9705 60.5924 43.5807 60.7887C43.6212 60.8017 43.6433 60.8448 43.6302 60.8849C43.6171 60.925 43.5737 60.947 43.5333 60.934C42.8731 60.7216 42.3777 60.1498 42.0207 59.3329C41.8615 58.9686 41.7405 58.579 41.6524 58.1894C41.6268 58.0758 41.6054 57.969 41.5881 57.8707L41.5692 57.7563L41.5566 57.6682C41.5516 57.6263 41.5817 57.5883 41.6238 57.5833Z" fill="#253368"/>
<path d="M42.5902 57.519C42.6264 57.4969 42.6737 57.5082 42.6959 57.5441L42.7206 57.5859L42.7588 57.6543C42.768 57.6711 42.7777 57.689 42.7878 57.708L42.837 57.8023C42.8956 57.9172 42.9589 58.049 43.0259 58.1981C43.2713 58.7443 43.5164 59.4091 43.7451 60.1957C44.1156 61.4702 44.4063 62.9399 44.5868 64.611C44.5913 64.6529 44.5608 64.6905 44.5185 64.695C44.4763 64.6995 44.4384 64.6692 44.4339 64.6273C44.2543 62.9651 43.9654 61.504 43.5973 60.238C43.3706 59.4583 43.1279 58.8001 42.8854 58.2603C42.8101 58.0927 42.7397 57.9475 42.6756 57.8245L42.6518 57.7794C42.6371 57.7517 42.6234 57.7265 42.6108 57.7038L42.5648 57.624C42.5426 57.588 42.554 57.541 42.5902 57.519Z" fill="#253368"/>
<path d="M31.4548 57.1529C31.4966 57.1605 31.5243 57.2002 31.5166 57.2417L31.5 57.3247L31.4886 57.3781C31.4653 57.4857 31.4368 57.6055 31.4031 57.7345C31.3068 58.1031 31.1877 58.4718 31.0445 58.8165C30.6956 59.6561 30.2625 60.2203 29.7268 60.3792C29.6861 60.3912 29.6433 60.3683 29.6311 60.3279C29.619 60.2875 29.6421 60.2449 29.6828 60.2328C30.1611 60.091 30.5697 59.5588 30.9023 58.7583C31.0425 58.4207 31.1595 58.0585 31.2542 57.6961L31.2856 57.5724C31.2956 57.5323 31.3049 57.4932 31.3137 57.4554L31.3477 57.302C31.3562 57.2616 31.3621 57.2319 31.3653 57.2142C31.3722 57.1769 31.4054 57.1509 31.4424 57.1516L31.4548 57.1529Z" fill="#253368"/>
<path fill-rule="evenodd" clip-rule="evenodd" d="M36.9953 56.4651C36.9902 56.6127 36.8309 56.7272 36.6397 56.7205C36.4484 56.7137 36.2977 56.5887 36.3028 56.4409C36.3079 56.2933 36.4673 56.1791 36.6584 56.1856C36.8497 56.1923 37.0005 56.3175 36.9953 56.4651Z" fill="#253368"/>
<path fill-rule="evenodd" clip-rule="evenodd" d="M41.3927 114.123C41.3927 114.123 44.5166 115.853 47.8055 114.166C48.0508 115.174 47.8071 115.966 44.5739 116.008C42.9205 116.029 42.004 115.461 41.5327 115.178C41.0467 114.886 41.2807 114.392 41.3927 114.123Z" fill="#A3B5D6"/>
<path d="M47.2585 112.888L47.2589 112.882C47.2579 112.833 47.2966 112.793 47.3452 112.792C47.3894 112.792 47.4267 112.823 47.4338 112.865L47.435 112.878C47.4355 112.927 47.4193 112.997 47.3731 113.082C47.3016 113.212 47.1752 113.34 46.9825 113.456C46.6929 113.631 46.2736 113.769 45.7032 113.858C44.8684 113.989 44.1194 113.88 43.4779 113.619C43.3197 113.554 43.1805 113.485 43.0614 113.416C42.9891 113.373 42.9391 113.34 42.9123 113.32C42.8733 113.292 42.8654 113.237 42.8945 113.198C42.9236 113.159 42.9788 113.151 43.0178 113.18L43.0383 113.195C43.0631 113.212 43.1007 113.236 43.1505 113.265C43.2627 113.33 43.3944 113.396 43.5448 113.457C44.1579 113.707 44.8747 113.811 45.6758 113.685C46.225 113.599 46.6229 113.469 46.8909 113.307C47.0578 113.206 47.1622 113.101 47.2183 112.998C47.2461 112.947 47.2567 112.909 47.2585 112.888Z" fill="#A3B5D6"/>
<path fill-rule="evenodd" clip-rule="evenodd" d="M47.3139 51.6215C47.3139 51.6215 47.4714 47.3124 47.6547 43.4167C47.8221 39.8643 47.341 36.7647 45.081 36.5629C42.2435 36.3098 42.2716 39.8571 42.0786 42.3724C41.9396 44.1823 42.0709 49.3795 42.2573 51.3641C42.5546 54.5297 46.6209 54.6026 47.3139 51.6215Z" fill="#FFC999"/>
<path fill-rule="evenodd" clip-rule="evenodd" d="M42.0015 44.9712C42.1947 42.456 41.4454 36.2057 44.9709 36.4828C47.4582 36.6783 47.9949 39.9927 47.5555 44.711L42.0015 44.9712Z" fill="#E4EBF7"/>
<path d="M30.8459 51.5345L44.8638 53.6026C44.9173 53.6105 44.9542 53.6599 44.9462 53.713C44.9389 53.7616 44.8965 53.7964 44.8483 53.7958L44.8351 53.7948L30.8172 51.7267C30.7637 51.7188 30.7268 51.6694 30.7348 51.6163C30.7421 51.5677 30.7845 51.5329 30.8327 51.5335L30.8459 51.5345Z" fill="#CCD7EE"/>
<path d="M33.7352 47.9905C33.7844 47.9955 33.8214 48.036 33.8229 48.0839L33.8224 48.0971L33.4543 51.6326C33.4487 51.686 33.4007 51.7247 33.3469 51.7192C33.2977 51.7142 33.2607 51.6737 33.2592 51.6258L33.2597 51.6126L33.6278 48.0771C33.6329 48.0282 33.6737 47.9915 33.7219 47.99L33.7352 47.9905Z" fill="#CCD7EE"/>
<path fill-rule="evenodd" clip-rule="evenodd" d="M32.4155 49.0873C32.256 49.0708 32.1411 48.9164 32.1594 48.7424C32.1774 48.5681 32.3216 48.4402 32.4809 48.4565C32.6407 48.473 32.7553 48.6273 32.7371 48.8016C32.719 48.9757 32.5749 49.1036 32.4155 49.0873Z" fill="white"/>
<path fill-rule="evenodd" clip-rule="evenodd" d="M31.3312 47.8331C31.3312 47.8331 29.2054 45.1182 28.3463 45.0624C27.4875 45.0064 25.9945 45.1715 25.7509 45.6237C25.1766 46.6895 25.2496 47.7181 25.2496 47.7181L28.0976 47.8126L31.3312 47.8331Z" fill="#FFC999"/>
<path d="M27.335 45.8168C27.4444 45.816 27.5502 45.8181 27.652 45.8232C27.6939 45.8253 27.7262 45.8608 27.7241 45.9025C27.722 45.9441 27.6862 45.9762 27.6443 45.9741C27.5455 45.9691 27.4427 45.9671 27.3361 45.9679C26.9758 45.9705 26.589 46.0045 26.2011 46.0594C26.0593 46.0795 25.9275 46.101 25.809 46.1224L25.7239 46.1383L25.661 46.1509C25.6199 46.1596 25.5794 46.1335 25.5707 46.0927C25.562 46.0519 25.5882 46.0118 25.6293 46.0031L25.722 45.9849C25.7407 45.9813 25.7606 45.9776 25.7817 45.9738L25.9064 45.9521C25.9923 45.9376 26.0837 45.9234 26.1796 45.9098C26.5737 45.854 26.967 45.8195 27.335 45.8168Z" fill="#DD936F"/>
<path d="M26.6477 46.5431L26.7685 46.5432C27.1225 46.5448 27.4002 46.5588 27.5785 46.5881C27.62 46.5949 27.648 46.6338 27.6412 46.6749C27.6343 46.7161 27.5951 46.744 27.5537 46.7371C27.3664 46.7064 27.0518 46.693 26.6481 46.6942C26.4493 46.6947 26.2386 46.6988 26.0253 46.7053L25.7852 46.7137L25.53 46.725C25.488 46.7272 25.4522 46.6952 25.45 46.6536C25.4478 46.6119 25.48 46.5763 25.522 46.5741L25.7255 46.5649C25.7782 46.5627 25.8338 46.5606 25.8918 46.5586C26.15 46.5495 26.4073 46.5438 26.6477 46.5431Z" fill="#DD936F"/>
<path d="M25.3324 47.1271L27.6022 47.2006C27.6442 47.2019 27.6772 47.2368 27.6758 47.2785C27.6746 47.3161 27.646 47.3463 27.6096 47.351L27.5973 47.3516L25.3275 47.2781C25.2855 47.2767 25.2525 47.2418 25.2539 47.2001C25.2551 47.1626 25.2837 47.1323 25.32 47.1277L25.3324 47.1271Z" fill="#DD936F"/>
<path fill-rule="evenodd" clip-rule="evenodd" d="M29.841 47.7421L29.2215 51.2391L43.8475 53.7452C45.3784 54.0679 46.8705 53.055 47.1232 51.5215C47.376 49.9879 46.2869 48.5557 44.7322 48.3769L29.841 47.7421Z" fill="#FFC999"/>
<path fill-rule="evenodd" clip-rule="evenodd" d="M47.1637 49.5823C47.4965 50.3057 46.6274 50.7225 46.6274 50.7225C46.6274 50.7225 46.7402 51.3295 45.8727 51.3655C45.0057 51.4018 41.2917 51.3745 41.2917 51.3745L41.0432 48.1625L42.5074 48.1118C42.5074 48.1118 43.5701 47.2088 44.1128 46.8618C44.6556 46.5146 46.0112 46.6946 46.7322 46.3859C47.4535 46.0775 47.0402 47.4293 45.3525 47.5734C47.9939 47.7188 48.1325 47.2552 48.2047 47.9405C48.241 48.2846 47.662 48.5103 47.662 48.5103C47.662 48.5103 48.0041 49.2005 47.1637 49.5823Z" fill="#FFC999"/>
<path d="M45.6742 47.2758L45.7997 47.2866C45.8993 47.2955 46.0103 47.3057 46.1299 47.3172C46.4146 47.3447 46.6992 47.3747 46.9709 47.4068L47.1321 47.4263C47.4854 47.47 47.7891 47.5145 48.0283 47.5592C48.0696 47.567 48.0967 47.6065 48.089 47.6475C48.0812 47.6885 48.0414 47.7154 48.0001 47.7077C47.7645 47.6637 47.4638 47.6196 47.1133 47.5762C46.8487 47.5435 46.5683 47.5127 46.2852 47.4843L46.0447 47.4609L45.6616 47.4263C45.6197 47.4229 45.5886 47.3864 45.5921 47.3448C45.5956 47.3032 45.6323 47.2723 45.6742 47.2758Z" fill="#DD936F"/>
<path fill-rule="evenodd" clip-rule="evenodd" d="M42.2548 51.2661L42.6982 48.173L27.1699 47.6145C25.605 47.6018 24.3466 48.8903 24.4075 50.4431C24.4682 51.9958 25.8234 53.1833 27.3826 53.0501L42.2548 51.2661Z" fill="#FFC999"/>
<path d="M47.0216 46.2247C47.1573 46.1451 47.2771 46.1868 47.2898 46.3276C47.2985 46.4232 47.2546 46.5613 47.1722 46.7049C46.971 47.0555 46.614 47.3421 46.1832 47.4283C46.1421 47.4365 46.1019 47.4101 46.0936 47.3692C46.0853 47.3283 46.112 47.2884 46.1532 47.2802C46.5375 47.2033 46.8592 46.945 47.04 46.6301C47.1032 46.52 47.138 46.4172 47.1388 46.3556L47.1382 46.3313C47.1379 46.3269 47.1338 46.3343 47.0991 46.3547C46.8885 46.4786 46.3904 46.5811 45.648 46.6774L45.4767 46.699C45.3603 46.7132 45.2392 46.7273 45.1107 46.7414L44.4863 46.8071C44.3025 46.8262 44.0513 46.9542 43.754 47.171C43.6141 47.2731 43.4668 47.3926 43.3147 47.5262C43.1682 47.6547 43.0234 47.7907 42.8843 47.9282L42.7811 48.0315C42.7335 48.0798 42.6894 48.1252 42.6495 48.1672L42.562 48.2607C42.5499 48.2739 42.5336 48.2824 42.5161 48.2848L42.5027 48.2855L31.1494 47.8693C31.1074 47.8678 31.0746 47.8327 31.0761 47.7911C31.0775 47.7535 31.1063 47.7234 31.1426 47.7189L31.155 47.7184L42.473 48.1331L42.5092 48.0948C42.5573 48.0437 42.612 47.9869 42.6724 47.9258C42.8448 47.751 43.0279 47.5763 43.2139 47.413C43.3692 47.2766 43.52 47.1542 43.6639 47.0493C43.9814 46.8178 44.2528 46.6795 44.4704 46.6569L44.9433 46.6077L45.1884 46.5807C45.3439 46.5632 45.4888 46.5457 45.6283 46.5276L45.8129 46.5028C46.4102 46.4194 46.8254 46.3299 47.0045 46.2343L47.0216 46.2247Z" fill="#DD936F"/>
<path d="M27.2676 45.075C27.0599 45.1116 26.8408 45.1576 26.615 45.211C26.4475 45.2505 26.2837 45.2923 26.1277 45.3346L25.9731 45.3774L25.7675 45.4372C25.7454 45.444 25.7276 45.4605 25.7191 45.4819L25.5956 45.8009C25.5261 45.9819 25.4567 46.1654 25.3898 46.3453L25.3008 46.587L25.1863 46.9061C25.0434 47.3116 24.9532 47.6015 24.9306 47.7428C24.9234 47.7885 24.9587 47.8299 25.0053 47.8302L27.5971 47.8467L31.4069 47.9092C31.4693 47.9102 31.5046 47.8414 31.4719 47.7924L31.4608 47.7789L31.3563 47.6654C31.27 47.5721 31.1732 47.4681 31.0681 47.3562C30.7677 47.0363 30.461 46.7163 30.1658 46.4176L30.0452 46.2962L29.8924 46.144L29.7965 46.0496C29.2608 45.5248 28.8654 45.1818 28.6498 45.0731C28.399 44.9465 27.9202 44.9601 27.2676 45.075ZM28.5809 45.2078L28.6156 45.2266C28.8467 45.3598 29.2909 45.7579 29.8782 46.3436L29.9968 46.4625L30.0572 46.5235C30.3024 46.7715 30.5556 47.0344 30.8066 47.2998L31.0085 47.5143L31.2327 47.7552L27.4865 47.6949L25.0991 47.6796L25.1015 47.6701C25.147 47.4873 25.2522 47.1694 25.4016 46.755L25.4669 46.5755C25.5315 46.3993 25.5996 46.2173 25.6686 46.0358L25.8105 45.666L25.8473 45.5711L25.9597 45.5383C25.9892 45.5299 26.0205 45.521 26.0534 45.5118C26.2414 45.4594 26.443 45.4069 26.6502 45.3579C26.8733 45.3052 27.0896 45.2598 27.2941 45.2238L27.4083 45.2045C27.9694 45.1136 28.384 45.1084 28.5809 45.2078Z" fill="#DD936F"/>
<path d="M47.0878 49.5873C47.0861 49.5629 47.0964 49.5393 47.1154 49.5238L47.1317 49.5101C47.1478 49.4962 47.1697 49.4765 47.1959 49.4517C47.2574 49.3934 47.3189 49.3286 47.3761 49.2592C47.5249 49.0789 47.6177 48.9011 47.629 48.7421C47.6341 48.6708 47.6227 48.6045 47.5932 48.5426C47.5755 48.5053 47.5912 48.4608 47.6284 48.4426C47.7903 48.3635 47.8977 48.2711 47.9592 48.1689C48.0409 48.0333 48.039 47.8877 47.9855 47.7484C47.9716 47.7123 47.9581 47.6864 47.9501 47.6738C47.9276 47.6386 47.9382 47.5919 47.9737 47.5696C48.0092 47.5473 48.0562 47.5578 48.0786 47.593C48.0918 47.6136 48.1099 47.6483 48.1277 47.6946C48.1963 47.8732 48.1988 48.0655 48.0898 48.2465C48.0234 48.3567 47.9185 48.4546 47.7723 48.5378L47.7574 48.5458L47.7665 48.5774C47.7777 48.6226 47.7829 48.6692 47.7823 48.7169L47.7808 48.7528C47.7667 48.9495 47.6607 49.1527 47.4939 49.3549C47.4324 49.4294 47.3667 49.4986 47.301 49.5609L47.2551 49.6033L47.2385 49.6178C47.236 49.6463 47.2297 49.6783 47.2183 49.7137L47.2088 49.7408C47.1715 49.8398 47.1032 49.937 46.998 50.0261C46.9002 50.1089 46.7742 50.1813 46.6175 50.2412L46.5641 50.2607L46.5564 50.2988C46.5219 50.4529 46.4511 50.5957 46.3536 50.7262L46.3263 50.7615C46.2716 50.8301 46.213 50.8906 46.1543 50.9425C46.1187 50.974 46.0905 50.996 46.0735 51.0079C46.0656 51.0134 46.0568 51.0174 46.0475 51.0196L46.0333 51.0216L42.8623 51.1728L27.3923 53.1251C27.3506 53.1303 27.3125 53.101 27.3072 53.0597C27.3024 53.0224 27.3258 52.988 27.361 52.9777L27.3731 52.9752L42.8491 51.0224L46.0027 50.8718L46.0246 50.8542L46.0531 50.8297C46.1055 50.7833 46.1581 50.7291 46.207 50.6677C46.3213 50.5244 46.398 50.3654 46.4207 50.194C46.4246 50.1651 46.4447 50.141 46.4726 50.132C46.6574 50.0721 46.7977 49.9971 46.8992 49.9112C46.9847 49.8387 47.038 49.7629 47.0664 49.6878C47.081 49.6491 47.0868 49.6175 47.0877 49.5961L47.0878 49.5873Z" fill="#DD936F"/>
<path fill-rule="evenodd" clip-rule="evenodd" d="M46.4221 83.8997C47.1844 88.6082 46.5228 96.6542 46.2746 102.498C46.153 105.364 46.2763 107.094 46.2763 107.094C46.2763 107.094 46.912 110.829 46.7291 111.422C46.4401 112.359 40.4773 113.883 42.6731 108.495C42.0498 100.339 41.1643 95.8986 40.2345 88.7145C40.0321 87.1504 39.9404 86.2997 39.7456 84.8041C39.7456 84.8041 39.1853 79.931 42.5408 79.2756C45.8965 78.62 46.4221 83.8997 46.4221 83.8997Z" fill="#FFC999"/>
<path fill-rule="evenodd" clip-rule="evenodd" d="M46.1621 81.7758C46.4181 73.3505 45.7481 70.2098 44.5002 64.0059C44.5002 64.0059 39.9655 59.2989 37.9281 66.8471C37.5589 68.2148 38.538 74.1358 39.5765 82.056C39.5765 82.056 39.822 86.4805 43.5181 86.3942C46.9837 86.3131 46.1621 81.7758 46.1621 81.7758Z" fill="#FFC999"/>
<path fill-rule="evenodd" clip-rule="evenodd" d="M46.8831 114.798C48.4409 114.611 47.564 112.375 46.9564 110.017C46.7712 109.298 46.7806 109.496 46.5589 108.843C46.2478 107.927 42.3259 108.313 42.3474 109C42.3889 110.326 41.9449 111.489 41.9449 111.489C41.2644 112.51 40.883 114.107 41.7625 114.507C44.0032 115.525 46.8831 114.798 46.8831 114.798Z" fill="#4E5C93"/>
<path d="M44.7068 109.896C45.3411 109.891 45.8371 109.957 46.1488 110.116C46.192 110.138 46.209 110.191 46.1868 110.234C46.1645 110.277 46.1114 110.294 46.0681 110.271C45.7888 110.129 45.3159 110.066 44.7083 110.071C44.3444 110.074 43.9539 110.101 43.562 110.144L43.4194 110.16C43.35 110.169 43.2834 110.177 43.22 110.186L43.1266 110.199L43.0048 110.217C42.9568 110.225 42.9115 110.193 42.9035 110.145C42.8956 110.098 42.9281 110.053 42.9761 110.045L43.1013 110.026L43.133 110.021C43.2569 110.004 43.3947 109.986 43.5426 109.97C43.94 109.926 44.3362 109.899 44.7068 109.896Z" fill="#A3B5D6"/>
<path fill-rule="evenodd" clip-rule="evenodd" d="M45.2263 63.2846C45.2263 63.2846 40.505 58.5555 36.7383 66.9199C37.5343 71.6592 38.3125 77.7538 38.3125 77.7538C38.3125 77.7538 42.4299 78.8158 46.3743 77.0193C45.4406 65.4411 45.2263 63.2846 45.2263 63.2846Z" fill="#597EF7"/>
<path d="M44.294 62.7333C44.3362 62.7285 44.3743 62.7585 44.3792 62.8004L44.4261 63.2174C44.5489 64.3404 44.7057 65.9934 44.8889 68.0684L44.9815 69.1279L45.0557 69.9897C45.1481 71.0703 45.242 72.1924 45.3352 73.3263L45.5265 75.6789L45.6413 77.1201C45.6446 77.1621 45.613 77.1989 45.5706 77.2021C45.5325 77.2051 45.4987 77.1799 45.49 77.1442L45.4862 77.1089L45.2934 74.7031L45.154 72.999C45.0699 71.981 44.9856 70.975 44.9024 70.0026L44.8095 68.9246L44.6645 67.2824C44.4885 65.3218 44.3399 63.7974 44.2264 62.8179C44.2215 62.776 44.2518 62.7381 44.294 62.7333Z" fill="#253368"/>
<path d="M45.7701 75.3453C45.8054 75.3218 45.8532 75.3313 45.8767 75.3664C45.9003 75.4014 45.8908 75.4489 45.8555 75.4723C45.1326 75.9514 44.2198 76.2581 43.1612 76.4169C41.9697 76.5957 40.6985 76.5773 39.4921 76.4391L39.3438 76.4214C39.2474 76.4094 39.1561 76.3971 39.0702 76.3847L38.9455 76.3661C38.9033 76.3595 38.8649 76.3533 38.8305 76.3475L38.7452 76.3326C38.7035 76.3248 38.6761 76.2848 38.684 76.2434C38.6919 76.202 38.7321 76.1747 38.7739 76.1826L38.8237 76.1915C38.8652 76.1986 38.9138 76.2066 38.9693 76.2152C39.128 76.2398 39.3091 76.2644 39.5097 76.2874C40.7037 76.4242 41.9621 76.4424 43.1382 76.2659C44.1762 76.1102 45.0681 75.8105 45.7701 75.3453Z" fill="#253368"/>
<path d="M37.0076 67.9969C37.0455 67.9919 37.0806 68.0152 37.0914 68.0504L37.094 68.0625L38.3813 77.6896L38.4649 77.7056L38.5866 77.7277C38.7955 77.7645 39.033 77.8013 39.2949 77.8356C40.669 78.0159 42.102 78.0588 43.44 77.8795C44.5634 77.7289 45.5421 77.4277 46.3346 76.9539C46.371 76.9322 46.4182 76.9439 46.4401 76.98C46.4621 77.0161 46.4503 77.063 46.4139 77.0848C45.6015 77.5704 44.6032 77.8776 43.4605 78.0308C42.1072 78.2122 40.6613 78.1689 39.2748 77.987L39.1023 77.9636C38.9054 77.9359 38.7239 77.907 38.5597 77.8781L38.3995 77.8487L38.2963 77.8283C38.2685 77.8224 38.2466 77.8018 38.2387 77.7753L38.2362 77.7636L36.9415 68.0826C36.9359 68.0408 36.9655 68.0024 37.0076 67.9969Z" fill="#253368"/>
<path d="M35.102 67.8348C35.1189 67.8012 35.1572 67.7854 35.1922 67.7955L35.2052 67.8005C35.2343 67.815 35.4296 67.844 35.7199 67.876L35.899 67.895C35.962 67.9015 36.0283 67.908 36.0974 67.9147L36.3466 67.9382C36.4314 67.9459 36.5176 67.9536 36.6042 67.9611L37.0239 67.9964C37.0663 67.9997 37.0978 68.0365 37.0944 68.0786C37.0911 68.1206 37.054 68.1519 37.0117 68.1486L36.7213 68.1245L36.4609 68.1018C36.3747 68.0941 36.2895 68.0864 36.2061 68.0785L36.0825 68.0667C35.9899 68.0578 35.9024 68.049 35.8208 68.0404L35.7029 68.0278C35.3766 67.9918 35.1912 67.9642 35.1365 67.9372C35.0985 67.9184 35.0831 67.8725 35.102 67.8348Z" fill="#253368"/>
<path d="M28.5527 101.592C28.5909 101.592 28.6231 101.619 28.6297 101.655L28.631 101.667L28.7066 105.716L34.1813 105.46C34.2195 105.458 34.2525 105.484 34.2601 105.52L34.2617 105.533C34.2635 105.571 34.2372 105.603 34.201 105.611L34.1885 105.612L28.6348 105.873C28.5959 105.875 28.5625 105.847 28.5556 105.81L28.5543 105.798L28.4772 101.67C28.4764 101.628 28.5102 101.593 28.5527 101.592Z" fill="#A3B5D6"/>
</svg>
