<svg width="37" height="37" viewBox="0 0 37 37" fill="none" xmlns="http://www.w3.org/2000/svg">
<path d="M28.9062 0H8.09375C6.17871 0 4.625 1.55371 4.625 3.46875V33.5312C4.625 35.4463 6.17871 37 8.09375 37H28.9062C30.8213 37 32.375 35.4463 32.375 33.5312V3.46875C32.375 1.55371 30.8213 0 28.9062 0ZM15.0312 2.3125H21.9688C22.6047 2.3125 23.125 2.83281 23.125 3.46875C23.125 4.10469 22.6047 4.625 21.9688 4.625H15.0312C14.3953 4.625 13.875 4.10469 13.875 3.46875C13.875 2.83281 14.3953 2.3125 15.0312 2.3125ZM18.5 11.5625C21.051 11.5625 23.125 13.6365 23.125 16.1875C23.125 18.7385 21.051 20.8125 18.5 20.8125C15.949 20.8125 13.875 18.7385 13.875 16.1875C13.875 13.6365 15.949 11.5625 18.5 11.5625ZM26.5938 28.675C26.5938 29.441 25.8711 30.0625 24.975 30.0625H12.025C11.1289 30.0625 10.4062 29.441 10.4062 28.675V27.2875C10.4062 24.9895 12.5814 23.125 15.2625 23.125H15.6238C16.5127 23.4936 17.4811 23.7031 18.5 23.7031C19.5189 23.7031 20.4945 23.4936 21.3762 23.125H21.7375C24.4186 23.125 26.5938 24.9895 26.5938 27.2875V28.675Z" fill="#60AFFF"/>
</svg>
